<svg xmlns="http://www.w3.org/2000/svg" version="1.1" xmlns:xlink="http://www.w3.org/1999/xlink" xmlns:svgjs="http://svgjs.dev/svgjs" width="1920" height="1080" preserveAspectRatio="none" viewBox="0 0 1920 1080"><g mask="url(&quot;#SvgjsMask1079&quot;)" fill="none"><rect width="1920" height="1080" x="0" y="0" fill="rgba(248, 252, 255, 1)"></rect><path d="M0,654.694C129.092,637.089,262.557,648.952,376.787,586.293C495.653,521.09,570.519,406.322,651.292,297.435C752.531,160.958,927.059,38.285,908.609,-130.638C890.254,-298.687,688.158,-373.717,565.305,-489.839C456.064,-593.095,362.575,-708.725,227.416,-774.509C73.383,-849.479,-106.069,-963.314,-262.072,-892.535C-421.551,-820.178,-422.396,-593.116,-508.502,-440.62C-574.309,-324.073,-679.215,-232.464,-708.517,-101.869C-739.215,34.949,-719.904,175.641,-676.703,309.04C-629.384,455.155,-585.953,629.07,-449.177,698.934C-312.424,768.786,-152.152,675.444,0,654.694" fill="#a3d7ff"></path><path d="M1920 1606.08C2015.709 1589.591 2062.185 1480.703 2146.136 1431.874 2235.925 1379.649 2371.171 1399.193 2426.663 1311.385 2481.665 1224.353 2442.656 1107.761 2413.337 1009.069 2386.921 920.15 2328.636 848.653 2268.271 778.222 2207.589 707.421 2150.488 625.976 2061.398 598.443 1971.88 570.778 1873.551 592 1787.789 629.731 1708.23 664.732 1645.5520000000001 728.4549999999999 1599.0149999999999 801.865 1556.845 868.386 1542.587 946.388 1537.2359999999999 1024.967 1532.2060000000001 1098.832 1554.443 1167.664 1569.162 1240.222 1588.6100000000001 1336.091 1569.85 1448.887 1637.556 1519.492 1707.122 1592.036 1820.95 1623.144 1920 1606.08" fill="#ffffff"></path></g><defs><mask id="SvgjsMask1079"><rect width="1920" height="1080" fill="#ffffff"></rect></mask></defs></svg>