<svg xmlns="http://www.w3.org/2000/svg" version="1.1" xmlns:xlink="http://www.w3.org/1999/xlink" xmlns:svgjs="http://svgjs.dev/svgjs" width="1440" height="560" preserveAspectRatio="none" viewBox="0 0 1440 560"><g mask="url(&quot;#SvgjsMask1034&quot;)" fill="none"><rect width="1440" height="560" x="0" y="0" fill="rgba(21, 67, 96, 1)"></rect><path d="M0,403.362C91.955,400.413,196.791,475.827,269.905,419.981C344.472,363.026,305.258,241.303,330.489,150.929C350.731,78.424,410.797,16.915,403.347,-57.993C395.798,-133.892,340.771,-194.359,290.447,-251.674C240.405,-308.668,179.685,-350.067,113.844,-387.716C29.616,-435.879,-53.922,-527.995,-147.416,-502.053C-240.62,-476.191,-248.566,-343.365,-311.305,-269.747C-373.297,-197.006,-503.487,-168.834,-512.484,-73.684C-521.583,22.546,-391.837,72.685,-352.012,160.759C-311.95,249.357,-361.33,382.482,-281.267,437.66C-201.89,492.366,-96.353,406.453,0,403.362" fill="#103248"></path><path d="M1440 1199.6599999999999C1563.22 1225.086 1710.554 1209.5700000000002 1801.748 1122.891 1892.305 1036.817 1867.451 889.553 1894.571 767.595 1915.551 673.25 1941.664 584.319 1943.001 487.679 1944.56 374.978 1975.609 245.017 1902.991 158.81599999999997 1830.388 72.63400000000001 1692.476 99.78899999999999 1585.753 63.61099999999999 1472.905 25.355999999999995 1375.87-77.29899999999998 1258.001-59.83299999999997 1137.731-42.01099999999997 1038.75 52.87299999999999 972.0830000000001 154.548 909.498 249.998 910.924 368.876 902.278 482.687 894.186 589.198 874.617 700.892 923.356 795.943 971.326 889.495 1080.122 926.344 1162.963 991.078 1255.929 1063.723 1324.451 1175.817 1440 1199.6599999999999" fill="#1a5478"></path></g><defs><mask id="SvgjsMask1034"><rect width="1440" height="560" fill="#ffffff"></rect></mask></defs></svg>